<svg width="40" height="40" viewBox="0 0 40 40" fill="none" xmlns="http://www.w3.org/2000/svg">
<rect width="40" height="40" rx="20" fill="#16A34A"/>
<g clip-path="url(#clip0_2_338)">
<path d="M29.8202 23.4201L27.3202 27.7501C26.8302 28.6101 25.9202 29.0601 25.0002 29.0001H23.0002V31.0001L20.5002 26.5001L23.0002 22.0001V24.0001H25.8202L23.6002 20.1501L27.9302 17.6501L29.7302 20.7701C30.2502 21.5401 30.3202 22.5701 29.8202 23.4201ZM17.2102 11.0601H22.2102C23.1902 11.0601 24.0402 11.6301 24.4502 12.4501L25.4502 14.1901L27.1802 13.1901L24.5402 17.6001L19.3902 17.6901L21.1202 16.6901L19.7102 14.2401L17.5002 18.0901L13.1602 15.5901L14.9602 12.4701C15.3702 11.6401 16.2202 11.0601 17.2102 11.0601ZM13.0502 27.7601L10.5502 23.4301C10.0602 22.5801 10.1302 21.5601 10.6402 20.7901L11.6402 19.0601L9.91016 18.0601L15.0502 18.1401L17.7002 22.5601L15.9702 21.5601L14.5602 24.0001H19.0002V29.0001H15.4002C14.9317 29.034 14.4631 28.9357 14.0476 28.7165C13.6322 28.4973 13.2866 28.1659 13.0502 27.7601Z" fill="black"/>
<path d="M29.8202 23.4201L27.3202 27.7501C26.8302 28.6101 25.9202 29.0601 25.0002 29.0001H23.0002V31.0001L20.5002 26.5001L23.0002 22.0001V24.0001H25.8202L23.6002 20.1501L27.9302 17.6501L29.7302 20.7701C30.2502 21.5401 30.3202 22.5701 29.8202 23.4201ZM17.2102 11.0601H22.2102C23.1902 11.0601 24.0402 11.6301 24.4502 12.4501L25.4502 14.1901L27.1802 13.1901L24.5402 17.6001L19.3902 17.6901L21.1202 16.6901L19.7102 14.2401L17.5002 18.0901L13.1602 15.5901L14.9602 12.4701C15.3702 11.6401 16.2202 11.0601 17.2102 11.0601ZM13.0502 27.7601L10.5502 23.4301C10.0602 22.5801 10.1302 21.5601 10.6402 20.7901L11.6402 19.0601L9.91016 18.0601L15.0502 18.1401L17.7002 22.5601L15.9702 21.5601L14.5602 24.0001H19.0002V29.0001H15.4002C14.9317 29.034 14.4631 28.9357 14.0476 28.7165C13.6322 28.4973 13.2866 28.1659 13.0502 27.7601Z" fill="#DCFCE7"/>
</g>
<defs>
<clipPath id="clip0_2_338">
<rect width="24" height="24" fill="white" transform="translate(8 8)"/>
</clipPath>
</defs>
</svg>
