<svg width="32" height="32" viewBox="0 0 32 32" fill="none" xmlns="http://www.w3.org/2000/svg">
<rect width="32" height="32" rx="16" fill="#2563EB"/>
<path d="M12.8253 21V19.4489L16.4496 16.093C16.7578 15.7947 17.0163 15.5263 17.2251 15.2876C17.4373 15.049 17.598 14.8153 17.7074 14.5866C17.8168 14.3546 17.8714 14.1044 17.8714 13.8359C17.8714 13.5376 17.8035 13.2808 17.6676 13.0653C17.5317 12.8466 17.3461 12.6792 17.1108 12.5632C16.8755 12.4439 16.6087 12.3842 16.3104 12.3842C15.9988 12.3842 15.727 12.4472 15.495 12.5732C15.263 12.6991 15.084 12.8797 14.9581 13.1151C14.8321 13.3504 14.7692 13.6304 14.7692 13.9553H12.7259C12.7259 13.2891 12.8767 12.7107 13.1783 12.2202C13.4799 11.7296 13.9025 11.3501 14.446 11.0817C14.9896 10.8132 15.616 10.679 16.3253 10.679C17.0545 10.679 17.6892 10.8082 18.2294 11.0668C18.773 11.322 19.1955 11.6766 19.4972 12.1307C19.7988 12.5848 19.9496 13.1051 19.9496 13.6918C19.9496 14.0762 19.8733 14.4557 19.7209 14.8303C19.5717 15.2048 19.3049 15.6207 18.9205 16.0781C18.536 16.5322 17.9941 17.0774 17.2947 17.7138L15.8082 19.1705V19.2401H20.0838V21H12.8253Z" fill="white"/>
</svg>
