<svg width="27" height="27" viewBox="0 0 27 27" fill="none" xmlns="http://www.w3.org/2000/svg">
<path d="M7.80362 21.1807H5.36783C5.01619 21.1817 4.67026 21.0919 4.36361 20.9198C4.05695 20.7477 3.79998 20.4993 3.61763 20.1986C3.44251 19.8966 3.34991 19.5539 3.34913 19.2048C3.34834 18.8557 3.4394 18.5126 3.61317 18.2098L8.02212 10.5903" stroke="#4ADE80" stroke-width="2.22956" stroke-linecap="round" stroke-linejoin="round"/>
<path d="M12.2627 21.1804H21.4072C21.7572 21.1777 22.1005 21.085 22.4043 20.9113C22.7081 20.7375 22.9621 20.4885 23.1418 20.1883C23.3145 19.8871 23.4054 19.546 23.4054 19.1989C23.4054 18.8517 23.3145 18.5107 23.1418 18.2095L21.7751 15.8462" stroke="#4ADE80" stroke-width="2.22956" stroke-linecap="round" stroke-linejoin="round"/>
<path d="M15.607 17.8364L12.2627 21.1808L15.607 24.5251" stroke="#4ADE80" stroke-width="2.22956" stroke-linecap="round" stroke-linejoin="round"/>
<path d="M9.2451 15.1565L8.02219 10.5903L3.45605 11.8144" stroke="#4ADE80" stroke-width="2.22956" stroke-linecap="round" stroke-linejoin="round"/>
<path d="M10.4165 6.47788L11.635 4.36872C11.8099 4.06372 12.0608 3.80911 12.3631 3.62961C12.6655 3.45011 13.0091 3.35181 13.3606 3.34424C13.7095 3.34359 14.0524 3.43472 14.3549 3.60847C14.6574 3.78223 14.9089 4.0325 15.0841 4.33417L19.4797 11.9626" stroke="#4ADE80" stroke-width="2.22956" stroke-linecap="round" stroke-linejoin="round"/>
<path d="M14.9131 10.7381L19.4792 11.9621L20.7021 7.396" stroke="#4ADE80" stroke-width="2.22956" stroke-linecap="round" stroke-linejoin="round"/>
</svg>
