<svg width="54" height="54" viewBox="0 0 54 54" fill="none" xmlns="http://www.w3.org/2000/svg">
<rect width="53.5814" height="53.5814" rx="26.7907" fill="#DCFCE7"/>
<path d="M34.9534 23.0233H19.0464C18.4974 23.0233 18.0522 23.4684 18.0522 24.0175V26.0059C18.0522 26.5549 18.4974 27.0001 19.0464 27.0001H34.9534C35.5025 27.0001 35.9476 26.5549 35.9476 26.0059V24.0175C35.9476 23.4684 35.5025 23.0233 34.9534 23.0233Z" stroke="#16A34A" stroke-width="1.98837" stroke-linecap="round" stroke-linejoin="round"/>
<path d="M27 23.0233V35.9477" stroke="#16A34A" stroke-width="1.98837" stroke-linecap="round" stroke-linejoin="round"/>
<path d="M33.9591 27.0001V33.9594C33.9591 34.4868 33.7496 34.9925 33.3768 35.3654C33.0039 35.7383 32.4981 35.9478 31.9708 35.9478H22.0289C21.5016 35.9478 20.9958 35.7383 20.6229 35.3654C20.25 34.9925 20.0405 34.4868 20.0405 33.9594V27.0001" stroke="#16A34A" stroke-width="1.98837" stroke-linecap="round" stroke-linejoin="round"/>
<path d="M22.526 23.0232C21.8668 23.0232 21.2346 22.7614 20.7685 22.2953C20.3024 21.8292 20.0405 21.197 20.0405 20.5378C20.0405 19.8786 20.3024 19.2464 20.7685 18.7803C21.2346 18.3142 21.8668 18.0523 22.526 18.0523C23.4851 18.0356 24.4249 18.501 25.223 19.3877C26.021 20.2744 26.6402 21.5413 26.9998 23.0232C27.3595 21.5413 27.9787 20.2744 28.7767 19.3877C29.5747 18.501 30.5146 18.0356 31.4737 18.0523C32.1329 18.0523 32.765 18.3142 33.2312 18.7803C33.6973 19.2464 33.9591 19.8786 33.9591 20.5378C33.9591 21.197 33.6973 21.8292 33.2312 22.2953C32.765 22.7614 32.1329 23.0232 31.4737 23.0232" stroke="#16A34A" stroke-width="1.98837" stroke-linecap="round" stroke-linejoin="round"/>
</svg>
