<svg width="32" height="32" viewBox="0 0 32 32" fill="none" xmlns="http://www.w3.org/2000/svg">
<rect width="32" height="32" rx="16" fill="#2563EB"/>
<path d="M15.5888 21.1392C14.8464 21.1392 14.1851 21.0116 13.6051 20.7564C13.0284 20.4979 12.5727 20.1432 12.2379 19.6925C11.9065 19.2384 11.7358 18.7147 11.7259 18.1214H13.8935C13.9067 18.37 13.9879 18.5888 14.1371 18.7777C14.2895 18.9633 14.4917 19.1075 14.7436 19.2102C14.9955 19.313 15.2789 19.3643 15.5938 19.3643C15.9219 19.3643 16.2119 19.3063 16.4638 19.1903C16.7157 19.0743 16.9129 18.9136 17.0554 18.7081C17.1979 18.5026 17.2692 18.2656 17.2692 17.9972C17.2692 17.7254 17.1929 17.4851 17.0405 17.2763C16.8913 17.0642 16.6759 16.8984 16.3942 16.7791C16.1158 16.6598 15.7843 16.6001 15.3999 16.6001H14.4503V15.0192H15.3999C15.7247 15.0192 16.0114 14.9628 16.2599 14.8501C16.5118 14.7375 16.7074 14.5817 16.8466 14.3828C16.9858 14.1806 17.0554 13.9453 17.0554 13.6768C17.0554 13.4216 16.9941 13.1979 16.8714 13.0057C16.7521 12.8101 16.5831 12.6577 16.3643 12.5483C16.1489 12.4389 15.897 12.3842 15.6087 12.3842C15.317 12.3842 15.0502 12.4373 14.8082 12.5433C14.5663 12.6461 14.3724 12.7936 14.2266 12.9858C14.0807 13.178 14.0028 13.4034 13.9929 13.6619H11.9297C11.9396 13.0753 12.107 12.5582 12.4318 12.1108C12.7566 11.6634 13.1941 11.3137 13.7443 11.0618C14.2978 10.8066 14.9226 10.679 15.6186 10.679C16.3213 10.679 16.9361 10.8066 17.4631 11.0618C17.9901 11.317 18.3994 11.6617 18.6911 12.0959C18.986 12.5268 19.1319 13.0107 19.1286 13.5476C19.1319 14.1177 18.9545 14.5933 18.5966 14.9744C18.242 15.3556 17.7796 15.5975 17.2095 15.7003V15.7798C17.9586 15.8759 18.5286 16.1361 18.9197 16.5604C19.3142 16.9813 19.5097 17.5083 19.5064 18.1413C19.5097 18.7214 19.3423 19.2367 19.0043 19.6875C18.6695 20.1383 18.2071 20.4929 17.6172 20.7514C17.0272 21.0099 16.3511 21.1392 15.5888 21.1392Z" fill="white"/>
</svg>
