<svg width="168" height="32" viewBox="0 0 168 32" fill="none" xmlns="http://www.w3.org/2000/svg">
<path d="M7.80362 23.4102H5.36783C5.01619 23.4112 4.67026 23.3213 4.36361 23.1493C4.05695 22.9772 3.79998 22.7288 3.61763 22.4281C3.44251 22.1261 3.34991 21.7834 3.34913 21.4343C3.34834 21.0852 3.4394 20.7421 3.61317 20.4393L8.02212 12.8198" stroke="#4ADE80" stroke-width="2.22956" stroke-linecap="round" stroke-linejoin="round"/>
<path d="M12.2627 23.4099H21.4072C21.7572 23.4072 22.1005 23.3145 22.4043 23.1408C22.7081 22.967 22.9621 22.718 23.1418 22.4177C23.3145 22.1166 23.4054 21.7755 23.4054 21.4284C23.4054 21.0812 23.3145 20.7401 23.1418 20.439L21.7751 18.0757" stroke="#4ADE80" stroke-width="2.22956" stroke-linecap="round" stroke-linejoin="round"/>
<path d="M15.607 20.0659L12.2627 23.4103L15.607 26.7546" stroke="#4ADE80" stroke-width="2.22956" stroke-linecap="round" stroke-linejoin="round"/>
<path d="M9.2451 17.386L8.02219 12.8198L3.45605 14.0439" stroke="#4ADE80" stroke-width="2.22956" stroke-linecap="round" stroke-linejoin="round"/>
<path d="M10.4165 8.70738L11.635 6.59822C11.8099 6.29321 12.0608 6.0386 12.3631 5.8591C12.6655 5.6796 13.0091 5.5813 13.3606 5.57373C13.7095 5.57308 14.0524 5.66421 14.3549 5.83796C14.6574 6.01172 14.9089 6.26199 15.0841 6.56366L19.4797 14.1921" stroke="#4ADE80" stroke-width="2.22956" stroke-linecap="round" stroke-linejoin="round"/>
<path d="M14.9131 12.9676L19.4792 14.1916L20.7021 9.62549" stroke="#4ADE80" stroke-width="2.22956" stroke-linecap="round" stroke-linejoin="round"/>
<path d="M37.0822 24V7.78504H43.4795C44.704 7.78504 45.7491 8.00408 46.6148 8.44218C47.4857 8.87501 48.1481 9.48993 48.6021 10.287C49.0613 11.0787 49.2909 12.0103 49.2909 13.0818C49.2909 14.1586 49.0586 15.0849 48.5942 15.8608C48.1297 16.6315 47.4567 17.2227 46.5752 17.6344C45.699 18.0461 44.6381 18.2519 43.3924 18.2519H39.109V15.4966H42.8382C43.4927 15.4966 44.0363 15.4069 44.4692 15.2275C44.902 15.048 45.224 14.7788 45.4351 14.4199C45.6515 14.0609 45.7597 13.6149 45.7597 13.0818C45.7597 12.5434 45.6515 12.0895 45.4351 11.72C45.224 11.3505 44.8993 11.0708 44.4612 10.8808C44.0284 10.6855 43.4821 10.5878 42.8223 10.5878H40.5104V24H37.0822ZM45.8389 16.6209L49.8689 24H46.0843L42.1414 16.6209H45.8389ZM56.9966 24.2375C55.7456 24.2375 54.6688 23.9842 53.7662 23.4774C52.8689 22.9655 52.1775 22.2423 51.6919 21.3081C51.2063 20.3685 50.9635 19.2574 50.9635 17.9748C50.9635 16.7239 51.2063 15.626 51.6919 14.6811C52.1775 13.7363 52.861 13 53.7425 12.4722C54.6292 11.9443 55.6691 11.6804 56.862 11.6804C57.6643 11.6804 58.4111 11.8097 59.1026 12.0684C59.7993 12.3217 60.4063 12.7044 60.9236 13.2164C61.4462 13.7284 61.8526 14.3724 62.1429 15.1483C62.4332 15.9189 62.5784 16.8215 62.5784 17.856V18.7824H52.3094V16.6922H59.4035C59.4035 16.2066 59.2979 15.7764 59.0868 15.4016C58.8756 15.0269 58.5827 14.7339 58.2079 14.5228C57.8384 14.3064 57.4083 14.1982 56.9174 14.1982C56.4054 14.1982 55.9515 14.3169 55.5556 14.5545C55.165 14.7867 54.8588 15.1008 54.6372 15.4966C54.4155 15.8872 54.302 16.3227 54.2967 16.803V18.7903C54.2967 19.392 54.4075 19.9119 54.6292 20.35C54.8562 20.7881 55.1755 21.126 55.5873 21.3635C55.999 21.601 56.4872 21.7198 57.052 21.7198C57.4267 21.7198 57.7698 21.667 58.0813 21.5614C58.3927 21.4559 58.6592 21.2975 58.8809 21.0864C59.1026 20.8752 59.2715 20.6166 59.3876 20.3105L62.5071 20.5163C62.3488 21.2658 62.0241 21.9203 61.5333 22.4798C61.0477 23.0341 60.4195 23.4669 59.6489 23.7783C58.8836 24.0845 57.9994 24.2375 56.9966 24.2375ZM70.2741 24.2375C69.0285 24.2375 67.957 23.9736 67.0597 23.4458C66.1676 22.9127 65.4814 22.1737 65.0011 21.2289C64.5261 20.2841 64.2885 19.1967 64.2885 17.9669C64.2885 16.7212 64.5287 15.6286 65.009 14.6891C65.4946 13.7442 66.1835 13.0079 67.0755 12.4801C67.9675 11.947 69.0285 11.6804 70.2583 11.6804C71.3193 11.6804 72.2482 11.8731 73.0453 12.2584C73.8423 12.6437 74.473 13.1847 74.9375 13.8815C75.402 14.5782 75.658 15.3964 75.7055 16.3359H72.5227C72.433 15.7289 72.1954 15.2406 71.8101 14.8712C71.4301 14.4964 70.9313 14.309 70.3137 14.309C69.7912 14.309 69.3346 14.4515 68.944 14.7366C68.5587 15.0163 68.2578 15.4254 68.0414 15.9638C67.825 16.5022 67.7168 17.154 67.7168 17.9194C67.7168 18.6953 67.8224 19.3551 68.0335 19.8988C68.2499 20.4424 68.5534 20.8568 68.944 21.1418C69.3346 21.4268 69.7912 21.5693 70.3137 21.5693C70.699 21.5693 71.0448 21.4902 71.3509 21.3318C71.6623 21.1735 71.9183 20.9439 72.1189 20.643C72.3248 20.3369 72.4594 19.97 72.5227 19.5425H75.7055C75.6527 20.4715 75.3994 21.2896 74.9454 21.9969C74.4968 22.6989 73.8766 23.2478 73.0848 23.6437C72.2931 24.0396 71.3562 24.2375 70.2741 24.2375ZM77.865 24V11.8388H81.2379V24H77.865ZM79.5593 10.2711C79.0579 10.2711 78.6277 10.1049 78.2688 9.77232C77.9152 9.43451 77.7383 9.03072 77.7383 8.56095C77.7383 8.09646 77.9152 7.69794 78.2688 7.36541C78.6277 7.0276 79.0579 6.85869 79.5593 6.85869C80.0608 6.85869 80.4883 7.0276 80.842 7.36541C81.2009 7.69794 81.3804 8.09646 81.3804 8.56095C81.3804 9.03072 81.2009 9.43451 80.842 9.77232C80.4883 10.1049 80.0608 10.2711 79.5593 10.2711ZM89.4344 24.2375C88.1887 24.2375 87.1172 23.9736 86.2199 23.4458C85.3279 22.9127 84.6417 22.1737 84.1614 21.2289C83.6863 20.2841 83.4488 19.1967 83.4488 17.9669C83.4488 16.7212 83.689 15.6286 84.1693 14.6891C84.6549 13.7442 85.3437 13.0079 86.2358 12.4801C87.1278 11.947 88.1887 11.6804 89.4186 11.6804C90.4795 11.6804 91.4085 11.8731 92.2055 12.2584C93.0025 12.6437 93.6333 13.1847 94.0978 13.8815C94.5623 14.5782 94.8183 15.3964 94.8658 16.3359H91.683C91.5932 15.7289 91.3557 15.2406 90.9704 14.8712C90.5904 14.4964 90.0916 14.309 89.474 14.309C88.9514 14.309 88.4949 14.4515 88.1043 14.7366C87.719 15.0163 87.4181 15.4254 87.2017 15.9638C86.9853 16.5022 86.8771 17.154 86.8771 17.9194C86.8771 18.6953 86.9826 19.3551 87.1938 19.8988C87.4102 20.4424 87.7137 20.8568 88.1043 21.1418C88.4949 21.4268 88.9514 21.5693 89.474 21.5693C89.8593 21.5693 90.205 21.4902 90.5112 21.3318C90.8226 21.1735 91.0786 20.9439 91.2792 20.643C91.485 20.3369 91.6196 19.97 91.683 19.5425H94.8658C94.813 20.4715 94.5596 21.2896 94.1057 21.9969C93.6571 22.6989 93.0369 23.2478 92.2451 23.6437C91.4534 24.0396 90.5165 24.2375 89.4344 24.2375ZM100.398 7.78504V24H97.0253V7.78504H100.398ZM106.568 24.2296C105.792 24.2296 105.1 24.095 104.493 23.8258C103.886 23.5513 103.406 23.1476 103.052 22.6144C102.704 22.0761 102.53 21.4057 102.53 20.6034C102.53 19.9278 102.654 19.3604 102.902 18.9012C103.15 18.4419 103.488 18.0725 103.915 17.7927C104.343 17.513 104.829 17.3018 105.372 17.1593C105.921 17.0168 106.497 16.9165 107.098 16.8584C107.806 16.7846 108.376 16.7159 108.808 16.6526C109.241 16.584 109.555 16.4837 109.751 16.3517C109.946 16.2198 110.044 16.0245 110.044 15.7658V15.7183C110.044 15.2169 109.885 14.8289 109.569 14.5545C109.257 14.28 108.814 14.1428 108.238 14.1428C107.631 14.1428 107.148 14.2774 106.789 14.5465C106.431 14.8105 106.193 15.143 106.077 15.5441L102.957 15.2908C103.116 14.5518 103.427 13.9132 103.892 13.3748C104.356 12.8311 104.955 12.4141 105.689 12.1238C106.428 11.8282 107.283 11.6804 108.254 11.6804C108.93 11.6804 109.576 11.7596 110.194 11.918C110.817 12.0763 111.368 12.3217 111.849 12.6543C112.334 12.9868 112.717 13.4144 112.997 13.9369C113.277 14.4542 113.416 15.0744 113.416 15.7975V24H110.218V22.3136H110.123C109.927 22.6936 109.666 23.0288 109.339 23.3191C109.012 23.6041 108.618 23.8285 108.159 23.9921C107.7 24.1504 107.17 24.2296 106.568 24.2296ZM107.534 21.9019C108.03 21.9019 108.468 21.8042 108.848 21.6089C109.228 21.4084 109.526 21.1392 109.743 20.8013C109.959 20.4635 110.067 20.0809 110.067 19.6533V18.3628C109.962 18.4314 109.817 18.4947 109.632 18.5528C109.452 18.6056 109.249 18.6557 109.022 18.7032C108.795 18.7454 108.568 18.785 108.341 18.822C108.114 18.8536 107.908 18.8827 107.724 18.9091C107.328 18.9671 106.982 19.0595 106.687 19.1862C106.391 19.3129 106.161 19.4844 105.998 19.7008C105.834 19.9119 105.752 20.1759 105.752 20.4926C105.752 20.9518 105.919 21.3028 106.251 21.5456C106.589 21.7831 107.016 21.9019 107.534 21.9019ZM114.456 10.6116V7.78504H127.773V10.6116H122.808V24H119.42V10.6116H114.456ZM133.681 24.2375C132.43 24.2375 131.353 23.9842 130.451 23.4774C129.554 22.9655 128.862 22.2423 128.376 21.3081C127.891 20.3685 127.648 19.2574 127.648 17.9748C127.648 16.7239 127.891 15.626 128.376 14.6811C128.862 13.7363 129.546 13 130.427 12.4722C131.314 11.9443 132.354 11.6804 133.547 11.6804C134.349 11.6804 135.096 11.8097 135.787 12.0684C136.484 12.3217 137.091 12.7044 137.608 13.2164C138.131 13.7284 138.537 14.3724 138.827 15.1483C139.118 15.9189 139.263 16.8215 139.263 17.856V18.7824H128.994V16.6922H136.088C136.088 16.2066 135.982 15.7764 135.771 15.4016C135.56 15.0269 135.267 14.7339 134.893 14.5228C134.523 14.3064 134.093 14.1982 133.602 14.1982C133.09 14.1982 132.636 14.3169 132.24 14.5545C131.85 14.7867 131.543 15.1008 131.322 15.4966C131.1 15.8872 130.987 16.3227 130.981 16.803V18.7903C130.981 19.392 131.092 19.9119 131.314 20.35C131.541 20.7881 131.86 21.126 132.272 21.3635C132.684 21.601 133.172 21.7198 133.737 21.7198C134.111 21.7198 134.454 21.667 134.766 21.5614C135.077 21.4559 135.344 21.2975 135.566 21.0864C135.787 20.8752 135.956 20.6166 136.072 20.3105L139.192 20.5163C139.033 21.2658 138.709 21.9203 138.218 22.4798C137.732 23.0341 137.104 23.4669 136.333 23.7783C135.568 24.0845 134.684 24.2375 133.681 24.2375ZM146.959 24.2375C145.713 24.2375 144.642 23.9736 143.744 23.4458C142.852 22.9127 142.166 22.1737 141.686 21.2289C141.211 20.2841 140.973 19.1967 140.973 17.9669C140.973 16.7212 141.213 15.6286 141.694 14.6891C142.179 13.7442 142.868 13.0079 143.76 12.4801C144.652 11.947 145.713 11.6804 146.943 11.6804C148.004 11.6804 148.933 11.8731 149.73 12.2584C150.527 12.6437 151.158 13.1847 151.622 13.8815C152.087 14.5782 152.343 15.3964 152.39 16.3359H149.207C149.118 15.7289 148.88 15.2406 148.495 14.8712C148.115 14.4964 147.616 14.309 146.998 14.309C146.476 14.309 146.019 14.4515 145.629 14.7366C145.243 15.0163 144.942 15.4254 144.726 15.9638C144.51 16.5022 144.401 17.154 144.401 17.9194C144.401 18.6953 144.507 19.3551 144.718 19.8988C144.934 20.4424 145.238 20.8568 145.629 21.1418C146.019 21.4268 146.476 21.5693 146.998 21.5693C147.384 21.5693 147.729 21.4902 148.036 21.3318C148.347 21.1735 148.603 20.9439 148.803 20.643C149.009 20.3369 149.144 19.97 149.207 19.5425H152.39C152.337 20.4715 152.084 21.2896 151.63 21.9969C151.181 22.6989 150.561 23.2478 149.769 23.6437C148.978 24.0396 148.041 24.2375 146.959 24.2375ZM157.922 16.9693V24H154.55V7.78504H157.827V13.9844H157.97C158.244 13.2666 158.688 12.7044 159.3 12.298C159.912 11.8863 160.68 11.6804 161.604 11.6804C162.449 11.6804 163.185 11.8652 163.813 12.2346C164.446 12.5989 164.937 13.124 165.286 13.8102C165.639 14.4911 165.814 15.3066 165.808 16.2567V24H162.435V16.8584C162.441 16.1089 162.251 15.5257 161.865 15.1087C161.485 14.6917 160.952 14.4832 160.266 14.4832C159.807 14.4832 159.4 14.5809 159.047 14.7762C158.698 14.9715 158.424 15.2565 158.223 15.6312C158.028 16.0007 157.928 16.4467 157.922 16.9693Z" fill="white"/>
</svg>
